<svg width="91" height="56" viewBox="0 0 91 56" fill="none" xmlns="http://www.w3.org/2000/svg">
<path d="M50.5022 55.7466H50.4781C49.836 55.7217 49.2177 55.4977 48.7101 55.1059C48.2024 54.714 47.8307 54.1741 47.6472 53.5616L31.5914 7.85274L25.0479 32.9418C24.3144 35.1267 22.5304 36.5137 20.5708 36.5137H2.19725C0.984975 36.5137 0 35.411 0 34.0479C0 32.6849 0.984975 31.5822 2.19725 31.5822H20.5604C20.6386 31.5802 20.714 31.5536 20.7759 31.5062C20.8378 31.4588 20.883 31.3931 20.9048 31.3185L28.5608 2.34931C29.0498 0.886981 30.1691 0.010274 31.4468 0H31.4709C32.7417 0 33.8576 0.852738 34.326 2.18151L50.6503 48.6746L57.769 34.7945C58.5267 32.8391 60.228 31.5822 62.1291 31.5822H88.2308C89.4431 31.5822 90.4246 32.6884 90.4246 34.0479C90.4246 35.4075 89.4431 36.5137 88.2308 36.5137H62.1222C62.0452 36.5144 61.9705 36.5394 61.9086 36.5849C61.8468 36.6304 61.801 36.6942 61.7778 36.7671L61.7123 36.9349L53.2918 53.7158C53.0872 54.2946 52.7112 54.7983 52.2133 55.1608C51.7154 55.5232 51.119 55.7274 50.5022 55.7466Z" fill="#496CAF"/>
</svg>
