<svg width="17" height="18" viewBox="0 0 18 19" fill="none" xmlns="http://www.w3.org/2000/svg">
<path fill-rule="evenodd" clip-rule="evenodd" d="M12.5 11.7048H11.71L11.43 11.4175C12.41 10.2045 13 8.62966 13 6.9165C13 3.09646 10.09 0 6.5 0C2.91 0 0 3.09646 0 6.9165C0 10.7365 2.91 13.833 6.5 13.833C8.11 13.833 9.59 13.2052 10.73 12.1624L11 12.4603V13.301L16 18.6107L17.49 17.0252L12.5 11.7048ZM6.5 11.7048C4.01 11.7048 2 9.56605 2 6.9165C2 4.26695 4.01 2.12815 6.5 2.12815C8.99 2.12815 11 4.26695 11 6.9165C11 9.56605 8.99 11.7048 6.5 11.7048Z" fill="#496CAF"/>
</svg>
