<svg width="22" height="22" viewBox="0 0 22 22" fill="none" xmlns="http://www.w3.org/2000/svg">
<path d="M11 0C4.93471 0 0 4.93471 0 11C0 17.0653 4.93471 22 11 22C17.0653 22 22 17.0653 22 11C22 4.93471 17.0653 0 11 0ZM11 20.625C5.69268 20.625 1.37501 16.3073 1.37501 11C1.37501 5.69268 5.69268 1.37501 11 1.37501C16.3073 1.37501 20.625 5.69268 20.625 11C20.625 16.3073 16.3073 20.625 11 20.625Z" fill="#5E728A"/>
<path d="M11.6875 4.125H10.3125V11.2847L14.6389 15.6111L15.6111 14.6389L11.6875 10.7153V4.125Z" fill="#5E728A"/>
</svg>
