<svg width="26" height="20" viewBox="0 0 26 20" fill="none" xmlns="http://www.w3.org/2000/svg">
<path d="M14.7727 11.875C13.7879 11.875 12.9508 11.5104 12.2614 10.7812C11.572 10.0521 11.2273 9.16667 11.2273 8.125C11.2273 7.08333 11.572 6.19792 12.2614 5.46875C12.9508 4.73958 13.7879 4.375 14.7727 4.375C15.7576 4.375 16.5947 4.73958 17.2841 5.46875C17.9735 6.19792 18.3182 7.08333 18.3182 8.125C18.3182 9.16667 17.9735 10.0521 17.2841 10.7812C16.5947 11.5104 15.7576 11.875 14.7727 11.875ZM5.31818 16.25C4.82576 16.25 4.4072 16.0677 4.0625 15.7031C3.7178 15.3385 3.54545 14.8958 3.54545 14.375V1.875C3.54545 1.35417 3.7178 0.911458 4.0625 0.546875C4.4072 0.182292 4.82576 0 5.31818 0H24.2273C24.7197 0 25.1383 0.182292 25.483 0.546875C25.8277 0.911458 26 1.35417 26 1.875V14.375C26 14.8958 25.8277 15.3385 25.483 15.7031C25.1383 16.0677 24.7197 16.25 24.2273 16.25H5.31818ZM8.27273 14.375H21.2727C21.2727 13.5 21.5583 12.7604 22.1295 12.1562C22.7008 11.5521 23.4 11.25 24.2273 11.25V5C23.4 5 22.7008 4.69792 22.1295 4.09375C21.5583 3.48958 21.2727 2.75 21.2727 1.875H8.27273C8.27273 2.75 7.98712 3.48958 7.41591 4.09375C6.8447 4.69792 6.14545 5 5.31818 5V11.25C6.14545 11.25 6.8447 11.5521 7.41591 12.1562C7.98712 12.7604 8.27273 13.5 8.27273 14.375ZM22.4545 20H1.77273C1.2803 20 0.861742 19.8177 0.517045 19.4531C0.172348 19.0885 0 18.6458 0 18.125V3.75H1.77273V18.125H22.4545V20ZM5.31818 14.375V1.875V14.375Z" fill="#496CAF"/>
</svg>
